<svg id="visual" viewBox="0 0 900 600" width="900" height="600" xmlns="http://www.w3.org/2000/svg" xmlns:xlink="http://www.w3.org/1999/xlink" version="1.1"><rect x="0" y="0" width="900" height="600" fill="#001220"></rect><defs><linearGradient id="grad1_0" x1="33.3%" y1="0%" x2="100%" y2="100%"><stop offset="20%" stop-color="#40326f" stop-opacity="1"></stop><stop offset="80%" stop-color="#40326f" stop-opacity="1"></stop></linearGradient></defs><defs><linearGradient id="grad1_1" x1="33.3%" y1="0%" x2="100%" y2="100%"><stop offset="20%" stop-color="#40326f" stop-opacity="1"></stop><stop offset="80%" stop-color="#2a2e61" stop-opacity="1"></stop></linearGradient></defs><defs><linearGradient id="grad1_2" x1="33.3%" y1="0%" x2="100%" y2="100%"><stop offset="20%" stop-color="#182852" stop-opacity="1"></stop><stop offset="80%" stop-color="#2a2e61" stop-opacity="1"></stop></linearGradient></defs><defs><linearGradient id="grad1_3" x1="33.3%" y1="0%" x2="100%" y2="100%"><stop offset="20%" stop-color="#182852" stop-opacity="1"></stop><stop offset="80%" stop-color="#092241" stop-opacity="1"></stop></linearGradient></defs><defs><linearGradient id="grad1_4" x1="33.3%" y1="0%" x2="100%" y2="100%"><stop offset="20%" stop-color="#031a30" stop-opacity="1"></stop><stop offset="80%" stop-color="#092241" stop-opacity="1"></stop></linearGradient></defs><defs><linearGradient id="grad1_5" x1="33.3%" y1="0%" x2="100%" y2="100%"><stop offset="20%" stop-color="#031a30" stop-opacity="1"></stop><stop offset="80%" stop-color="#001220" stop-opacity="1"></stop></linearGradient></defs><defs><linearGradient id="grad2_0" x1="0%" y1="0%" x2="66.7%" y2="100%"><stop offset="20%" stop-color="#40326f" stop-opacity="1"></stop><stop offset="80%" stop-color="#40326f" stop-opacity="1"></stop></linearGradient></defs><defs><linearGradient id="grad2_1" x1="0%" y1="0%" x2="66.7%" y2="100%"><stop offset="20%" stop-color="#2a2e61" stop-opacity="1"></stop><stop offset="80%" stop-color="#40326f" stop-opacity="1"></stop></linearGradient></defs><defs><linearGradient id="grad2_2" x1="0%" y1="0%" x2="66.7%" y2="100%"><stop offset="20%" stop-color="#2a2e61" stop-opacity="1"></stop><stop offset="80%" stop-color="#182852" stop-opacity="1"></stop></linearGradient></defs><defs><linearGradient id="grad2_3" x1="0%" y1="0%" x2="66.7%" y2="100%"><stop offset="20%" stop-color="#092241" stop-opacity="1"></stop><stop offset="80%" stop-color="#182852" stop-opacity="1"></stop></linearGradient></defs><defs><linearGradient id="grad2_4" x1="0%" y1="0%" x2="66.7%" y2="100%"><stop offset="20%" stop-color="#092241" stop-opacity="1"></stop><stop offset="80%" stop-color="#031a30" stop-opacity="1"></stop></linearGradient></defs><defs><linearGradient id="grad2_5" x1="0%" y1="0%" x2="66.7%" y2="100%"><stop offset="20%" stop-color="#001220" stop-opacity="1"></stop><stop offset="80%" stop-color="#031a30" stop-opacity="1"></stop></linearGradient></defs><g transform="translate(900, 0)"><path d="M0 324.5C-19.2 324.4 -38.5 324.3 -56.3 319.6C-74.2 314.8 -90.7 305.3 -108.8 298.8C-126.8 292.3 -146.3 288.8 -160 277.1C-173.7 265.5 -181.5 245.7 -196.1 233.6C-210.6 221.5 -231.9 217.1 -242.8 203.8C-253.8 190.4 -254.5 168.2 -260.7 150.5C-266.9 132.8 -278.7 119.7 -286.6 104.3C-294.5 89 -298.6 71.4 -304.3 53.7C-310 35.9 -317.2 18 -324.5 0L0 0Z" fill="#021728"></path><path d="M0 270.4C-16 270.4 -32.1 270.3 -47 266.3C-61.9 262.3 -75.6 254.4 -90.6 249C-105.7 243.6 -121.9 240.6 -133.3 230.9C-144.7 221.2 -151.3 204.8 -163.4 194.7C-175.5 184.6 -193.2 180.9 -202.4 169.8C-211.5 158.7 -212 140.2 -217.2 125.4C-222.4 110.7 -232.2 99.7 -238.8 86.9C-245.5 74.1 -248.9 59.5 -253.6 44.7C-258.3 29.9 -264.4 15 -270.4 0L0 0Z" fill="#041e39"></path><path d="M0 216.3C-12.8 216.3 -25.6 216.2 -37.6 213C-49.5 209.9 -60.5 203.6 -72.5 199.2C-84.5 194.9 -97.5 192.5 -106.7 184.8C-115.8 177 -121 163.8 -130.7 155.8C-140.4 147.7 -154.6 144.7 -161.9 135.8C-169.2 126.9 -169.6 112.1 -173.8 100.3C-177.9 88.5 -185.8 79.8 -191.1 69.5C-196.4 59.3 -199.1 47.6 -202.9 35.8C-206.7 23.9 -211.5 12 -216.3 0L0 0Z" fill="#0f2549"></path><path d="M0 162.2C-9.6 162.2 -19.2 162.2 -28.2 159.8C-37.1 157.4 -45.4 152.7 -54.4 149.4C-63.4 146.2 -73.2 144.4 -80 138.6C-86.8 132.7 -90.8 122.9 -98 116.8C-105.3 110.8 -115.9 108.6 -121.4 101.9C-126.9 95.2 -127.2 84.1 -130.3 75.3C-133.4 66.4 -139.3 59.8 -143.3 52.2C-147.3 44.5 -149.3 35.7 -152.2 26.8C-155 18 -158.6 9 -162.2 0L0 0Z" fill="#212b59"></path><path d="M0 108.2C-6.4 108.1 -12.8 108.1 -18.8 106.5C-24.7 104.9 -30.2 101.8 -36.3 99.6C-42.3 97.4 -48.8 96.3 -53.3 92.4C-57.9 88.5 -60.5 81.9 -65.4 77.9C-70.2 73.8 -77.3 72.4 -80.9 67.9C-84.6 63.5 -84.8 56.1 -86.9 50.2C-89 44.3 -92.9 39.9 -95.5 34.8C-98.2 29.7 -99.5 23.8 -101.4 17.9C-103.3 12 -105.7 6 -108.2 0L0 0Z" fill="#353068"></path><path d="M0 54.1C-3.2 54.1 -6.4 54.1 -9.4 53.3C-12.4 52.5 -15.1 50.9 -18.1 49.8C-21.1 48.7 -24.4 48.1 -26.7 46.2C-28.9 44.2 -30.3 41 -32.7 38.9C-35.1 36.9 -38.6 36.2 -40.5 34C-42.3 31.7 -42.4 28 -43.4 25.1C-44.5 22.1 -46.4 19.9 -47.8 17.4C-49.1 14.8 -49.8 11.9 -50.7 8.9C-51.7 6 -52.9 3 -54.1 0L0 0Z" fill="#40326f"></path></g><g transform="translate(0, 600)"><path d="M0 -324.5C16.2 -305 32.3 -285.6 49.3 -279.7C66.3 -273.8 84.2 -281.5 103.3 -283.8C122.4 -286.1 142.8 -283 157 -271.9C171.2 -260.9 179.2 -241.8 193.5 -230.6C207.7 -219.4 228.3 -216 246.7 -207C265.1 -197.9 281.4 -183.2 281 -162.2C280.7 -141.3 263.7 -114.3 261.2 -95.1C258.7 -75.9 270.7 -64.5 283.6 -50C296.6 -35.5 310.5 -17.7 324.5 0L0 0Z" fill="#021728"></path><path d="M0 -270.4C13.5 -254.2 26.9 -238 41.1 -233.1C55.3 -228.2 70.1 -234.6 86.1 -236.5C102 -238.4 119 -235.8 130.8 -226.6C142.7 -217.4 149.3 -201.5 161.2 -192.1C173.1 -182.8 190.2 -180 205.6 -172.5C220.9 -164.9 234.5 -152.6 234.2 -135.2C233.9 -117.8 219.8 -95.2 217.7 -79.2C215.6 -63.2 225.6 -53.8 236.4 -41.7C247.1 -29.6 258.8 -14.8 270.4 0L0 0Z" fill="#041e39"></path><path d="M0 -216.3C10.8 -203.4 21.5 -190.4 32.9 -186.5C44.2 -182.5 56.1 -187.7 68.9 -189.2C81.6 -190.7 95.2 -188.7 104.7 -181.3C114.1 -173.9 119.5 -161.2 129 -153.7C138.5 -146.2 152.2 -144 164.4 -138C176.7 -131.9 187.6 -122.1 187.3 -108.2C187.1 -94.2 175.8 -76.2 174.2 -63.4C172.5 -50.6 180.4 -43 189.1 -33.3C197.7 -23.6 207 -11.8 216.3 0L0 0Z" fill="#0f2549"></path><path d="M0 -162.2C8.1 -152.5 16.2 -142.8 24.7 -139.8C33.2 -136.9 42.1 -140.7 51.6 -141.9C61.2 -143 71.4 -141.5 78.5 -136C85.6 -130.4 89.6 -120.9 96.7 -115.3C103.9 -109.7 114.1 -108 123.3 -103.5C132.5 -99 140.7 -91.6 140.5 -81.1C140.3 -70.7 131.9 -57.1 130.6 -47.5C129.4 -37.9 135.3 -32.3 141.8 -25C148.3 -17.7 155.3 -8.9 162.2 0L0 0Z" fill="#212b59"></path><path d="M0 -108.2C5.4 -101.7 10.8 -95.2 16.4 -93.2C22.1 -91.3 28.1 -93.8 34.4 -94.6C40.8 -95.4 47.6 -94.3 52.3 -90.6C57.1 -87 59.7 -80.6 64.5 -76.9C69.2 -73.1 76.1 -72 82.2 -69C88.4 -66 93.8 -61.1 93.7 -54.1C93.6 -47.1 87.9 -38.1 87.1 -31.7C86.2 -25.3 90.2 -21.5 94.5 -16.7C98.9 -11.8 103.5 -5.9 108.2 0L0 0Z" fill="#353068"></path><path d="M0 -54.1C2.7 -50.8 5.4 -47.6 8.2 -46.6C11.1 -45.6 14 -46.9 17.2 -47.3C20.4 -47.7 23.8 -47.2 26.2 -45.3C28.5 -43.5 29.9 -40.3 32.2 -38.4C34.6 -36.6 38 -36 41.1 -34.5C44.2 -33 46.9 -30.5 46.8 -27C46.8 -23.6 44 -19 43.5 -15.8C43.1 -12.6 45.1 -10.8 47.3 -8.3C49.4 -5.9 51.8 -3 54.1 0L0 0Z" fill="#40326f"></path></g></svg>